<?xml version="1.0" encoding="utf-8"?>
<!-- Generator: Adobe Illustrator 16.0.0, SVG Export Plug-In . SVG Version: 6.00 Build 0)  -->
<!DOCTYPE svg PUBLIC "-//W3C//DTD SVG 1.0//EN" "http://www.w3.org/TR/2001/REC-SVG-20010904/DTD/svg10.dtd">
<svg version="1.0" id="Layer_1" xmlns="http://www.w3.org/2000/svg" xmlns:xlink="http://www.w3.org/1999/xlink" x="0px" y="0px"
	 width="513.321px" height="186px" viewBox="0 0 513.321 186" enable-background="new 0 0 513.321 186" xml:space="preserve">
<path d="M122.978,23.595"/>
<rect x="94.56" y="23.682" fill="#FFFFFF" width="55.141" height="28.719"/>
<rect x="94.56" y="23.682" fill="none" stroke="#000000" stroke-miterlimit="10" width="55.141" height="28.719"/>
<rect x="149.701" y="23.682" fill="#FFFFFF" width="15.928" height="28.719"/>
<rect x="149.701" y="23.682" fill="none" stroke="#000000" stroke-miterlimit="10" width="15.928" height="28.719"/>
<line fill="none" stroke="#000000" stroke-miterlimit="10" x1="157.665" y1="38.042" x2="190.664" y2="38.042"/>
<polygon points="188.683,40.947 199.523,38.042 188.683,35.136 "/>
<rect x="199.523" y="23.682" fill="#FFFFFF" width="55.142" height="28.719"/>
<rect x="199.523" y="23.682" fill="none" stroke="#000000" stroke-miterlimit="10" width="55.142" height="28.719"/>
<rect x="254.665" y="23.682" fill="#FFFFFF" width="15.928" height="28.719"/>
<rect x="254.665" y="23.682" fill="none" stroke="#000000" stroke-miterlimit="10" width="15.928" height="28.719"/>
<line fill="none" stroke="#000000" stroke-miterlimit="10" x1="262.629" y1="38.042" x2="295.628" y2="38.042"/>
<text transform="matrix(1 0 0 1 118.1509 42.4072)" fill="#ED3E95" font-family="'MyriadPro-Regular'" font-size="17.0938">2</text>
<text transform="matrix(1 0 0 1 222.4912 42.4072)" fill="#ED3E95" font-family="'MyriadPro-Regular'" font-size="17.0938">4</text>
<path d="M228.738,52.022"/>
<rect x="37.96" y="22.735" fill="#FFFFFF" width="27.571" height="28.719"/>
<rect x="37.96" y="22.735" fill="none" stroke="#000000" stroke-miterlimit="10" width="27.571" height="28.719"/>
<line fill="none" stroke="#000000" stroke-miterlimit="10" x1="51.746" y1="37.094" x2="84.745" y2="37.094"/>
<polygon points="82.764,39.999 93.604,37.094 82.764,34.188 "/>
<text transform="matrix(1 0 0 1 44.916 16.083)" font-family="'MyriadPro-Regular'" font-size="17.0938">l1</text>
<path fill="none" stroke="#000000" stroke-miterlimit="10" d="M191.104,45.58"/>
<polygon points="295.628,40.947 306.469,38.042 295.628,35.136 "/>
<rect x="306.469" y="23.682" fill="none" stroke="#000000" stroke-miterlimit="10" width="55.142" height="28.719"/>
<rect x="361.61" y="23.682" fill="#FFFFFF" width="15.928" height="28.719"/>
<rect x="361.61" y="23.682" fill="none" stroke="#000000" stroke-miterlimit="10" width="15.928" height="28.719"/>
<line fill="none" stroke="#000000" stroke-miterlimit="10" x1="369.574" y1="38.042" x2="402.573" y2="38.042"/>
<text transform="matrix(1 0 0 1 329.4365 42.4072)" fill="#ED3E95" font-family="'MyriadPro-Regular'" font-size="17.0938">3</text>
<path d="M335.684,52.022"/>
<polygon points="400.196,40.354 411.038,37.449 400.196,34.544 "/>
<rect x="411.038" y="23.089" fill="#FFFFFF" width="55.141" height="28.719"/>
<rect x="411.038" y="23.089" fill="none" stroke="#000000" stroke-miterlimit="10" width="55.141" height="28.719"/>
<line fill="none" stroke="#000000" stroke-miterlimit="10" x1="411.037" y1="23.089" x2="466.179" y2="51.429"/>
<text transform="matrix(1 0 0 1 423.8369 16.4473)" font-family="'MyriadPro-Regular'" font-size="17.0938">null</text>
<path d="M123.606,79.811"/>
<rect x="95.189" y="79.898" fill="#FFFFFF" width="55.141" height="28.719"/>
<rect x="95.189" y="79.898" fill="none" stroke="#000000" stroke-miterlimit="10" width="55.141" height="28.719"/>
<rect x="150.33" y="79.898" fill="#FFFFFF" width="15.928" height="28.719"/>
<rect x="150.33" y="79.898" fill="none" stroke="#000000" stroke-miterlimit="10" width="15.928" height="28.719"/>
<line fill="none" stroke="#000000" stroke-miterlimit="10" x1="158.294" y1="94.258" x2="191.293" y2="94.258"/>
<polygon points="189.312,97.163 200.152,94.258 189.312,91.353 "/>
<rect x="200.152" y="79.898" fill="#FFFFFF" width="55.142" height="28.719"/>
<rect x="200.152" y="79.898" fill="none" stroke="#000000" stroke-miterlimit="10" width="55.142" height="28.719"/>
<rect x="255.294" y="79.898" fill="#FFFFFF" width="15.928" height="28.719"/>
<rect x="255.294" y="79.898" fill="none" stroke="#000000" stroke-miterlimit="10" width="15.928" height="28.719"/>
<line fill="none" stroke="#000000" stroke-miterlimit="10" x1="263.258" y1="94.258" x2="296.257" y2="94.258"/>
<text transform="matrix(1 0 0 1 118.7798 98.623)" fill="#ED3E95" font-family="'MyriadPro-Regular'" font-size="17.0938">5</text>
<text transform="matrix(1 0 0 1 223.1201 98.623)" fill="#ED3E95" font-family="'MyriadPro-Regular'" font-size="17.0938">6</text>
<path d="M229.367,108.238"/>
<rect x="38.589" y="78.951" fill="#FFFFFF" width="27.571" height="28.719"/>
<rect x="38.589" y="78.951" fill="none" stroke="#000000" stroke-miterlimit="10" width="27.571" height="28.719"/>
<line fill="none" stroke="#000000" stroke-miterlimit="10" x1="52.375" y1="93.31" x2="85.374" y2="93.31"/>
<polygon points="83.393,96.215 94.233,93.31 83.393,90.404 "/>
<text transform="matrix(1 0 0 1 44.0703 73.2988)" font-family="'MyriadPro-Regular'" font-size="17.0938">l2</text>
<path fill="none" stroke="#000000" stroke-miterlimit="10" d="M191.733,101.796"/>
<polygon points="296.257,97.163 307.098,94.258 296.257,91.353 "/>
<rect x="307.098" y="79.898" fill="none" stroke="#000000" stroke-miterlimit="10" width="55.142" height="28.719"/>
<rect x="362.239" y="79.898" fill="#FFFFFF" width="15.928" height="28.719"/>
<rect x="362.239" y="79.898" fill="none" stroke="#000000" stroke-miterlimit="10" width="15.928" height="28.719"/>
<line fill="none" stroke="#000000" stroke-miterlimit="10" x1="370.203" y1="94.258" x2="403.202" y2="94.258"/>
<text transform="matrix(1 0 0 1 330.0654 98.623)" fill="#ED3E95" font-family="'MyriadPro-Regular'" font-size="17.0938">4</text>
<path d="M336.312,108.238"/>
<polygon points="400.825,96.57 411.667,93.665 400.825,90.76 "/>
<rect x="411.667" y="79.305" fill="#FFFFFF" width="55.141" height="28.719"/>
<rect x="411.667" y="79.305" fill="none" stroke="#000000" stroke-miterlimit="10" width="55.141" height="28.719"/>
<line fill="none" stroke="#000000" stroke-miterlimit="10" x1="411.666" y1="79.305" x2="466.808" y2="107.645"/>
<text transform="matrix(1 0 0 1 424.4658 72.6631)" font-family="'MyriadPro-Regular'" font-size="17.0938">null</text>
<path d="M122.757,152.595"/>
<rect x="94.34" y="152.682" fill="#FFFFFF" width="55.141" height="28.719"/>
<rect x="94.34" y="152.682" fill="none" stroke="#000000" stroke-miterlimit="10" width="55.141" height="28.719"/>
<rect x="149.481" y="152.682" fill="#FFFFFF" width="15.928" height="28.719"/>
<rect x="149.481" y="152.682" fill="none" stroke="#000000" stroke-miterlimit="10" width="15.928" height="28.719"/>
<line fill="none" stroke="#000000" stroke-miterlimit="10" x1="157.445" y1="167.042" x2="190.444" y2="167.042"/>
<polygon points="188.462,169.947 199.303,167.042 188.462,164.137 "/>
<rect x="199.303" y="152.682" fill="#FFFFFF" width="55.142" height="28.719"/>
<rect x="199.303" y="152.682" fill="none" stroke="#000000" stroke-miterlimit="10" width="55.142" height="28.719"/>
<rect x="254.445" y="152.682" fill="#FFFFFF" width="15.928" height="28.719"/>
<rect x="254.445" y="152.682" fill="none" stroke="#000000" stroke-miterlimit="10" width="15.928" height="28.719"/>
<line fill="none" stroke="#000000" stroke-miterlimit="10" x1="262.409" y1="167.042" x2="295.408" y2="167.042"/>
<text transform="matrix(1 0 0 1 117.9307 171.4072)" fill="#ED3E95" font-family="'MyriadPro-Regular'" font-size="17.0938">7</text>
<text transform="matrix(1 0 0 1 222.271 171.4072)" fill="#ED3E95" font-family="'MyriadPro-Regular'" font-size="17.0938">0</text>
<path d="M228.518,181.022"/>
<rect x="37.74" y="151.735" fill="#FFFFFF" width="27.571" height="28.719"/>
<rect x="37.74" y="151.735" fill="none" stroke="#000000" stroke-miterlimit="10" width="27.571" height="28.719"/>
<line fill="none" stroke="#000000" stroke-miterlimit="10" x1="51.525" y1="166.094" x2="84.524" y2="166.094"/>
<polygon points="82.543,168.999 93.384,166.094 82.543,163.188 "/>
<text transform="matrix(1 0 0 1 31.2212 144.083)" font-family="'MyriadPro-Regular'" font-size="17.0938">result</text>
<path fill="none" stroke="#000000" stroke-miterlimit="10" d="M190.884,174.58"/>
<polygon points="295.408,169.947 306.248,167.042 295.408,164.137 "/>
<rect x="306.248" y="152.682" fill="none" stroke="#000000" stroke-miterlimit="10" width="55.143" height="28.719"/>
<rect x="361.391" y="152.682" fill="#FFFFFF" width="15.928" height="28.719"/>
<rect x="361.391" y="152.682" fill="none" stroke="#000000" stroke-miterlimit="10" width="15.928" height="28.719"/>
<line fill="none" stroke="#000000" stroke-miterlimit="10" x1="369.354" y1="167.042" x2="402.354" y2="167.042"/>
<text transform="matrix(1 0 0 1 329.2168 171.4072)" fill="#ED3E95" font-family="'MyriadPro-Regular'" font-size="17.0938">8</text>
<path d="M335.463,181.022"/>
<polygon points="399.977,169.354 410.818,166.449 399.977,163.544 "/>
<rect x="410.818" y="152.089" fill="#FFFFFF" width="55.141" height="28.719"/>
<rect x="410.818" y="152.089" fill="none" stroke="#000000" stroke-miterlimit="10" width="55.141" height="28.719"/>
<line fill="none" stroke="#000000" stroke-miterlimit="10" x1="410.816" y1="152.089" x2="465.959" y2="180.429"/>
<text transform="matrix(1 0 0 1 423.6172 145.4473)" font-family="'MyriadPro-Regular'" font-size="17.0938">null</text>
<text transform="matrix(1 0 0 1 6 97.3096)" font-family="'MyriadPro-Regular'" font-size="28">+</text>
<text transform="matrix(1 0 0 1 6 170.54)" font-family="'MyriadPro-Regular'" font-size="28">=</text>
<text transform="matrix(1 0 0 1 309.749 143.5303)" font-family="'MyriadPro-Regular'" font-size="17.0938">carry = 1</text>
<line stroke="#000000" stroke-width="0.25" stroke-miterlimit="10" x1="0" y1="122.656" x2="513.321" y2="122.656"/>
</svg>
